<svg xmlns="http://www.w3.org/2000/svg" viewBox="0 0 64 64">
<path d="M13.617 6.943c-3.588 0-6.243 3.141-6.124 6.549.114 3.273-.034 7.513-1.102 10.97-1.07 3.468-2.88 5.66-5.836 5.942v3.193c2.956.281 4.766 2.474 5.837 5.941 1.067 3.458 1.214 7.698 1.101 10.97-.119 3.408 2.536 6.55 6.124 6.55h36.77c3.589 0 6.244-3.143 6.125-6.55-.114-3.273.034-7.513 1.101-10.97 1.07-3.467 2.876-5.659 5.832-5.941v-3.194c-2.956-.281-4.761-2.473-5.832-5.941-1.067-3.457-1.215-7.697-1.101-10.97.118-3.408-2.536-6.55-6.125-6.55Zm29.058 30.843c0 4.691-3.501 7.536-9.311 7.536H22.653a.245.245 0 0 1-.245-.245V18.914a.245.245 0 0 1 .245-.246h10.655c4.844 0 8.023 2.623 8.023 6.65 0 2.826-2.139 5.356-4.864 5.8v.148c3.71.406 6.207 2.974 6.207 6.52zm-10.39-15.738h-5.638v7.961h4.75c3.67 0 5.695-1.478 5.695-4.119 0-2.475-1.74-3.842-4.806-3.842zm-5.638 11.12v8.774h5.847c3.822 0 5.848-1.533 5.848-4.415 0-2.881-2.082-4.359-6.094-4.359z" fill="#7952b3" style="stroke-width:.5"/>
</svg>