<svg xmlns="http://www.w3.org/2000/svg" viewBox="0 0 64 64">
<path fill="#9b4f96" d="M57.749 15.335 33.576 1.422c-.4-.25-.95-.35-1.551-.35-.6 0-1.151.15-1.551.35L6.45 15.385c-.85.5-1.451 1.751-1.451 2.702v27.876c0 .55.1 1.201.5 1.752l53.45-31.03c-.3-.6-.75-1.05-1.201-1.35z" style="stroke-width:..5"/>
  <path fill="#68217a" d="M5.35 47.665c.25.4.6.75.951.95l24.123 13.963c.4.25.95.35 1.551.35.6 0 1.151-.15 1.551-.35L57.55 48.615c.85-.5 1.451-1.751 1.451-2.702V18.037c0-.45-.05-.95-.3-1.401z" style="stroke-width:..5"/>
  <path fill="#fff" d="M42.685 38.056a12.266 12.266 0 0 1-10.66 6.205c-6.756 0-12.261-5.505-12.261-12.261 0-6.756 5.505-12.261 12.261-12.261 4.554 0 8.558 2.502 10.66 6.255l6.506-3.753c-3.403-5.956-9.81-10.01-17.166-10.01-10.91 0-19.768 8.859-19.768 19.769 0 10.91 8.858 19.768 19.768 19.768 7.307 0 13.713-4.003 17.116-9.909zM48.54 33.1l.45-2.152H46.89v-2.352h2.552l.6-3.103h2.453l-.6 3.053h1.901l.6-3.053h2.403l-.6 3.053h1.2v2.352h-1.651l-.45 2.152h2.102v2.352h-2.553l-.6 3.003h-2.453l.6-3.003h-1.9l-.601 3.003h-2.403l.6-3.003h-1.2v-2.352h1.651zm2.403 0h1.901l.45-2.152h-1.901z" style="stroke-width:..5"/>
</svg>