<svg xmlns="http://www.w3.org/2000/svg" viewBox="0 0 64 64">
<path fill="#1572b6" d="M9.86 56.559 4.934 1.304h54.132l-4.93 55.246-22.17 6.147Z" style="stroke-width:..6"/>
  <path fill="#33a9dc" d="m32 57.999 17.913-4.967 4.214-47.21H32.001Z" style="stroke-width:..6"/>
  <path fill="#fff" d="M32 25.84h8.968l.62-6.939H32v-6.777h16.994l-.163 1.818-1.665 18.675H32Z" style="stroke-width:..6"/>
  <path fill="#ebebeb" d="m32.041 43.44-.03.01-7.547-2.04-.483-5.404h-6.802l.95 10.64L32.01 50.5l.032-.01v-7.05z" style="stroke-width:..6"/>
  <path fill="#fff" d="m40.392 32.33-.816 9.076-7.559 2.04v7.051l13.893-3.85.102-1.145 1.18-13.172z" style="stroke-width:..6"/>
  <path fill="#ebebeb" d="M32.024 12.124v6.777h-16.37l-.135-1.523-.309-3.436-.162-1.818zM32 25.841v6.777H24.55l-.136-1.523-.31-3.436-.162-1.818z" style="stroke-width:..6"/>
</svg>