<svg xmlns="http://www.w3.org/2000/svg" viewBox="0 0 64 64"><path d="M61.375 29.292 34.72 2.637a3.93 3.93 0 0 0-5.56 0L23.627 8.17l7.021 7.02a4.625 4.625 0 0 1 4.804 1.12 4.674 4.674 0 0 1 1.109 4.833l6.767 6.767a4.665 4.665 0 0 1 4.833 1.11 4.68 4.68 0 1 1-6.619 6.617 4.686 4.686 0 0 1-1.019-5.088l-6.31-6.311v16.608a4.77 4.77 0 0 1 1.24.885 4.679 4.679 0 1 1-6.617 6.617 4.674 4.674 0 0 1 0-6.617c.452-.45.954-.792 1.532-1.02V23.947a4.646 4.646 0 0 1-1.532-1.02 4.674 4.674 0 0 1-1.008-5.116l-6.925-6.922L2.625 29.15a3.93 3.93 0 0 0 0 5.561l26.657 26.653a3.93 3.93 0 0 0 5.56 0l26.533-26.49a3.93 3.93 0 0 0 0-5.562" fill="#f03c2e" style="stroke-width:1.9"/></svg>