<svg xmlns="http://www.w3.org/2000/svg" viewBox="0 0 64 64">
<path
   style="fill:#5c6bc0;stroke-width:0.119206"
   d="m 31.996186,2.1186034 c -16.849009,0 -30.512843,13.7172386 -30.512843,30.6387256 0,13.534138 8.743023,25.01603 20.873394,29.070931 1.525834,0.28228 2.082762,-0.663736 2.082762,-1.476243 0,-0.728585 -0.0267,-2.654949 -0.04196,-5.210719 -8.487446,1.850072 -10.280299,-4.108305 -10.280299,-4.108305 -1.384694,-3.539932 -3.387349,-4.482134 -3.387349,-4.482134 -2.7732019,-1.899663 0.205987,-1.861517 0.205987,-1.861517 3.06311,0.217431 4.672864,3.158475 4.672864,3.158475 2.723611,4.680491 7.144712,3.33013 8.884162,2.544325 0.274649,-1.979768 1.064267,-3.330129 1.937807,-4.09686 -6.774697,-0.774361 -13.900337,-3.402608 -13.900337,-15.140078 0,-3.345388 1.190149,-6.080444 3.143215,-8.224239 -0.316611,-0.774361 -1.361806,-3.890874 0.297537,-8.105987 0,0 2.5634,-0.82395 8.392081,3.139401 2.433704,-0.678996 5.042878,-1.018494 7.640609,-1.029938 2.590102,0.01526 5.20309,0.350942 7.640608,1.033752 5.824868,-3.963351 8.384452,-3.139401 8.384452,-3.139401 1.663158,4.218928 0.617963,7.331627 0.305167,8.105988 1.956881,2.143794 3.135586,4.87885 3.135586,8.224239 0,11.767986 -7.133269,14.358087 -13.930854,15.117189 1.094785,0.946017 2.071318,2.815162 2.071318,5.672284 0,4.096862 -0.03815,7.40029 -0.03815,8.403525 0,0.820135 0.5493,1.773781 2.098021,1.472429 12.111299,-4.058715 20.846693,-15.536794 20.846693,-29.067117 0,-16.921487 -13.663834,-30.6387256 -30.520474,-30.6387256 z"
   id="" />
</svg>