<svg xmlns="http://www.w3.org/2000/svg" viewBox="0 0 64 64"><path fill="#4285f4" d="M6.09 54.506h9.546V31.324L2 21.097v29.318a4 4 0 0 0 4 4" style="stroke-width:.68"/><path fill="#34a853" d="M48.364 54.506h9.545A4 4 0 0 0 62 50.415V21.097L48.364 31.324" style="stroke-width:.68"/><path fill="#fbbc04" d="M48.364 13.6v17.727L62 21.097v-5.455c0-5.059-5.775-7.943-9.818-4.909" style="stroke-width:.68"/><path fill="#ea4335" d="M15.636 31.324V13.6L32 25.869l16.364-12.272v17.727L32 43.6" style="stroke-width:.68"/><path fill="#c5221f" d="M2 15.642v5.455l13.636 10.227V13.6l-3.818-2.864C7.768 7.7 2 10.583 2 15.643" style="stroke-width:.68"/></svg>