<svg xmlns="http://www.w3.org/2000/svg" viewBox="0 0 64 64">
    <path fill="#e44d26" d="M9.86 56.56 4.933 1.303h54.134l-4.932 55.248-22.168 6.146Z" style="stroke-width:.6"/>
    <path fill="#f16529" d="m32 58 17.913-4.967 4.214-47.211H32Z" style="stroke-width:.6"/>
    <path fill="#ebebeb" d="M32 26.316h-8.968l-.619-6.94H32v-6.778H15.007l.161 1.819 1.666 18.675H32Zm0 17.6-.03.007-7.547-2.038-.483-5.404h-6.803l.95 10.64 13.882 3.854.031-.009Z" style="stroke-width:.6"/>
    <path fill="#fff" d="M31.977 26.316v6.776h8.345l-.787 8.79-7.558 2.04v7.05l13.893-3.85.102-1.146 1.592-17.841.166-1.82h-1.827zm0-13.718v6.777h16.37l.135-1.523.31-3.435.161-1.819z" style="stroke-width:.6"/>
</svg>