<svg xmlns="http://www.w3.org/2000/svg" viewBox="0 0 64 64">
<path fill="#83cd29" d="M57.164 40.374a.827.827 0 0 1-.416-.112l-1.325-.784c-.198-.11-.101-.15-.036-.172a2.69 2.69 0 0 0 .6-.273c.029-.016.067-.01.098.008l1.017.604a.13.13 0 0 0 .123 0l3.969-2.29a.124.124 0 0 0 .061-.108v-4.58a.128.128 0 0 0-.062-.11l-3.967-2.288a.127.127 0 0 0-.122 0l-3.967 2.289a.13.13 0 0 0-.062.109v4.58c0 .044.024.086.062.106l1.087.629c.59.294.952-.053.952-.402v-4.522c0-.064.051-.114.115-.114h.503c.063 0 .115.05.115.114v4.522c0 .787-.429 1.239-1.175 1.239-.23 0-.41 0-.914-.248l-1.04-.6a.838.838 0 0 1-.417-.723v-4.58c0-.298.159-.575.416-.723l3.969-2.294a.872.872 0 0 1 .833 0l3.969 2.294a.838.838 0 0 1 .416.723v4.58a.84.84 0 0 1-.416.724l-3.969 2.29a.826.826 0 0 1-.417.112m1.227-3.155c-1.738 0-2.101-.798-2.101-1.466a.115.115 0 0 1 .115-.115h.513a.115.115 0 0 1 .114.097c.077.523.308.786 1.359.786.835 0 1.191-.189 1.191-.633 0-.256-.1-.445-1.4-.573-1.086-.107-1.757-.347-1.757-1.216 0-.8.675-1.279 1.806-1.279 1.271 0 1.9.442 1.98 1.389a.118.118 0 0 1-.03.088.118.118 0 0 1-.084.036h-.516a.114.114 0 0 1-.111-.09c-.124-.55-.424-.725-1.24-.725-.912 0-1.018.319-1.018.556 0 .289.125.373 1.357.536 1.22.161 1.8.39 1.8 1.247 0 .866-.721 1.362-1.978 1.362" style="stroke-width:.500017"/>
  <path fill="#404137" d="M48.993 34.215a.51.51 0 0 0 .253-.44v-1.177a.508.508 0 0 0-.253-.44L44.81 29.73a.509.509 0 0 0-.51-.001l-4.207 2.43a.509.509 0 0 0-.254.44v4.858c0 .182.098.351.257.442l4.181 2.382a.507.507 0 0 0 .499.003l2.529-1.406a.254.254 0 0 0 .003-.442l-4.234-2.43a.254.254 0 0 1-.128-.22v-1.523c0-.091.048-.175.127-.22l1.318-.76a.253.253 0 0 1 .254 0l1.318.76a.254.254 0 0 1 .128.22v1.198a.254.254 0 0 0 .382.22l2.52-1.466" style="stroke-width:.500017"/>
  <path fill="#83cd29" d="M44.493 33.987a.1.1 0 0 1 .098 0l.807.466c.03.018.049.05.049.085v.932a.098.098 0 0 1-.049.085l-.807.466a.097.097 0 0 1-.098 0l-.807-.466a.097.097 0 0 1-.049-.085v-.932c0-.035.019-.067.05-.085l.806-.466" style="stroke-width:.500017"/>
  <path fill="#404137" d="M33.543 35.927a.127.127 0 0 1-.064.11l-1.445.833a.126.126 0 0 1-.127 0l-1.445-.833a.128.128 0 0 1-.064-.11v-1.67a.13.13 0 0 1 .064-.11l1.445-.834a.124.124 0 0 1 .128 0l1.445.834a.129.129 0 0 1 .063.11v1.67zm.39-12.359a.256.256 0 0 0-.378.222v6.458a.18.18 0 0 1-.088.154.18.18 0 0 1-.178 0l-1.054-.608a.509.509 0 0 0-.508 0l-4.21 2.43a.509.509 0 0 0-.254.44v4.86a.51.51 0 0 0 .254.44l4.21 2.43a.508.508 0 0 0 .508 0l4.21-2.43a.51.51 0 0 0 .254-.44V25.41a.51.51 0 0 0-.26-.444l-2.506-1.398" style="stroke-width:.500017"/>
  <path fill="#83cd29" d="M19.12 29.703a.507.507 0 0 1 .508 0l4.209 2.429a.51.51 0 0 1 .254.44v4.861a.51.51 0 0 1-.254.44l-4.209 2.431a.51.51 0 0 1-.508 0l-4.208-2.43a.51.51 0 0 1-.254-.44v-4.862a.51.51 0 0 1 .254-.44l4.208-2.43" style="stroke-width:.500017"/>
  <path fill="#404137" d="M11.465 32.532a.507.507 0 0 0-.254-.442l-4.207-2.422a.495.495 0 0 0-.232-.066h-.044a.497.497 0 0 0-.232.066L2.288 32.09a.51.51 0 0 0-.255.442l.01 6.52a.25.25 0 0 0 .127.22.244.244 0 0 0 .252 0l2.5-1.433a.512.512 0 0 0 .255-.44v-3.047c0-.182.096-.35.253-.44l1.065-.613a.497.497 0 0 1 .254-.069c.087 0 .176.022.254.069l1.064.613a.508.508 0 0 1 .254.44v3.046c0 .182.098.348.255.441l2.5 1.432a.254.254 0 0 0 .38-.22l.01-6.52" style="stroke-width:.500017"/>
</svg>