<svg xmlns="http://www.w3.org/2000/svg" viewBox="0 0 64 64">
<circle cx="32" cy="32" r="5.59" fill="#61dafb"/>
  <path d="M19.8 4.66c-1.14 0-2.22.242-3.13.783-3.13 1.8-4.27 6.31-3.19 12.7.18 1.14.42 2.29.721 3.49-1.2.361-2.28.721-3.37 1.08-6.07 2.35-9.44 5.59-9.44 9.14 0 3.61 3.37 6.86 9.44 9.14 1.08.421 2.16.781 3.37 1.08a40.18 40.18 0 0 0-.721 3.49c-1.02 6.44.12 11 3.19 12.8.902.541 1.98.781 3.13.781 3.49.12 7.82-2.4 12.2-6.62 4.39 4.27 8.72 6.8 12.2 6.8 1.14 0 2.22-.242 3.13-.783 3.13-1.8 4.27-6.31 3.19-12.8a39.81 39.81 0 0 0-.721-3.49c1.2-.361 2.28-.721 3.37-1.08 6.07-2.35 9.44-5.59 9.44-9.14 0-3.61-3.37-6.86-9.44-9.14a26.805 26.805 0 0 0-3.37-1.08c.301-1.2.54-2.35.721-3.49 1.02-6.56-.12-11.1-3.25-12.9-.902-.541-1.98-.783-3.13-.783-3.43 0-7.82 2.53-12.2 6.8-4.33-4.27-8.66-6.8-12.2-6.8zm.06 2.77c2.95 0 6.62 2.4 10.2 6.01-1.74 1.86-3.43 3.97-5.11 6.32-2.83.241-5.53.662-8.06 1.26-.3-1.08-.481-2.17-.661-3.25-.842-5.11-.18-8.72 1.87-9.93.48-.301 1.08-.42 1.74-.42zm24.4 0c.663 0 1.2.119 1.74.42 1.98 1.14 2.71 4.75 1.86 9.93-.18 1.02-.42 2.11-.66 3.25a77.196 77.196 0 0 0-8.06-1.26c-1.62-2.35-3.37-4.45-5.11-6.32 3.61-3.55 7.28-6.01 10.2-6.01zm-12.2 8.06c1.14 1.26 2.29 2.65 3.37 4.03-1.08-.06-2.23-.06-3.37-.06s-2.29 0-3.37.06c1.08-1.44 2.23-2.77 3.37-4.03zm0 6.74c1.92 0 3.73.06 5.47.18 1.08 1.56 2.05 3.13 2.95 4.69.963 1.62 1.81 3.25 2.59 4.87a64.553 64.553 0 0 1-2.59 4.87c-.901 1.56-1.92 3.13-2.95 4.69-1.8.12-3.61.182-5.47.182-1.92 0-3.73-.061-5.47-.182a67.177 67.177 0 0 1-2.95-4.69 63.135 63.135 0 0 1-2.59-4.87c.783-1.62 1.63-3.25 2.59-4.87.903-1.56 1.92-3.13 2.95-4.69 1.8-.12 3.61-.18 5.47-.18zm9.08.541c1.86.241 3.61.541 5.29.902-.54 1.68-1.14 3.37-1.86 5.05l-1.62-3.01c-.6-1.02-1.14-1.98-1.8-2.95zm-18.1.06c-.6.963-1.2 1.92-1.8 2.95-.6 1.02-1.14 1.98-1.62 3.01a39.916 39.916 0 0 1-1.86-5.05c1.68-.36 3.43-.662 5.29-.902zm-8 1.56c.783 2.47 1.74 4.99 2.95 7.58-1.2 2.59-2.23 5.17-2.95 7.58-6.74-1.92-10.8-4.87-10.8-7.58 0-2.35 2.77-4.69 7.64-6.56.963-.36 2.05-.723 3.13-1.02zm34 0c6.74 1.92 10.8 4.87 10.8 7.58 0 2.35-2.77 4.69-7.64 6.55-.961.361-2.05.723-3.13 1.02a62.091 62.091 0 0 0-2.95-7.58c1.2-2.59 2.23-5.11 2.95-7.58zm-4.51 10.8c.723 1.68 1.32 3.37 1.86 4.99-1.68.362-3.43.663-5.29.903.602-.962 1.2-1.92 1.8-2.95.542-.902 1.08-1.92 1.62-2.95zm-25 .06c.482.961 1.02 1.98 1.62 2.95.602 1.02 1.14 1.98 1.8 2.95a64.617 64.617 0 0 1-5.29-.903c.542-1.62 1.14-3.31 1.86-4.99zm-2.65 7.64c2.53.54 5.23.962 8.06 1.26 1.62 2.35 3.37 4.45 5.11 6.32-3.61 3.55-7.28 6.01-10.2 6.01-.661 0-1.2-.12-1.74-.42-2.05-1.14-2.71-4.81-1.87-9.93.18-1.02.423-2.11.663-3.25zm30.2 0c.302 1.08.483 2.17.663 3.25.841 5.11.18 8.78-1.87 9.93-.481.3-1.08.42-1.74.42-2.95 0-6.62-2.4-10.2-6.01 1.74-1.86 3.43-3.97 5.11-6.32 2.83-.242 5.53-.663 8.06-1.26zm-18.5 1.5c1.08.06 2.23.06 3.37.06s2.29 0 3.37-.06c-1.08 1.44-2.23 2.77-3.37 4.03-1.14-1.26-2.29-2.59-3.37-4.03z" fill="#61dafb"/>
</svg>