<svg xmlns="http://www.w3.org/2000/svg" viewBox="0 0 64 64"><path fill-rule="evenodd" clip-rule="evenodd" fill="#cb6699" d="M2.466 28.333c0 .33.098.549.152.761.356 1.38 1.12 2.564 2.028 3.644 1.291 1.54 2.874 2.779 4.494 3.944 1.406 1.01 2.84 1.998 4.252 3.001.242.173.471.37.734.582-.226.122-.414.23-.61.33-1.863.944-3.654 2.003-5.306 3.286-.996.773-1.958 1.595-2.638 2.67-1.094 1.727-1.481 3.567-.666 5.532.238.574.601 1.07 1.114 1.436.166.119.352.237.546.283.498.117 1.005.193 1.51.286h1.426c1.578-.141 3.014-.682 4.312-1.578 2.029-1.4 3.395-3.277 3.983-5.686.427-1.751.445-3.504-.059-5.247a5.502 5.502 0 0 0-.166-.477c-.061-.157-.133-.31-.218-.504l3.235-1.86.048.04c-.059.193-.121.385-.174.58-.385 1.403-.64 2.832-.548 4.289.097 1.552.53 3.005 1.44 4.302.734 1.05 2.485 1.089 3.266.036.278-.374.546-.765.748-1.183.527-1.089 1.016-2.197 1.52-3.298l.088-.201c-.037.521-.079.979-.098 1.437-.03.715.011 1.427.256 2.108.21.582.566 1.017 1.233 1.094.456.052.82-.157 1.155-.422a4.885 4.885 0 0 0 1.266-1.505c.894-1.642 1.813-3.274 2.623-4.958.877-1.821 1.644-3.696 2.458-5.548l.135-.328c.192.756.326 1.496.573 2.197.287.814.643 1.608 1.03 2.38.182.364.161.601-.092.907-1.062 1.28-2.105 2.575-3.149 3.868a8.69 8.69 0 0 0-.653.889 1.741 1.741 0 0 0-.226.641.817.817 0 0 0 .65.928 4.545 4.545 0 0 0 1.275.09c1.457-.107 2.78-.618 3.95-1.485 1.514-1.122 2-2.654 1.634-4.47-.1-.492-.275-.971-.446-1.446-.076-.214-.081-.364.058-.563 1.212-1.73 2.247-3.565 3.21-5.443.037-.074.076-.148.143-.227.312 1.623.782 3.188 1.623 4.607-.43.413-.854.788-1.238 1.201-.847.91-1.58 1.898-1.964 3.103-.164.52-.29 1.047-.217 1.602.113.861.819 1.421 1.666 1.225 1.813-.42 3.379-1.274 4.522-2.787.77-1.02.84-2.156.518-3.347-.089-.323-.194-.642-.306-1.013.447-.139.883-.305 1.334-.408 2.343-.535 4.66-.442 6.917.404 1.318.494 2.382 1.32 3.013 2.621.772 1.59.345 3.098-1.153 4.103-.14.093-.3.167-.415.284a.409.409 0 0 0-.097.316c.01.058.163.13.25.129.493-.004.893-.262 1.276-.527.96-.665 1.662-1.56 1.813-2.737l.03-.088-.037-.767c-.014-.044.011-.088.008-.122-.204-1.714-1.12-3.044-2.453-4.087-1.543-1.207-3.365-1.703-5.292-1.782a11.95 11.95 0 0 0-4.594.707c-.422.153-.84.334-1.264.505-.057-.103-.118-.202-.169-.304-.435-.892-.963-1.744-1.08-2.767-.083-.727-.184-1.452-.012-2.17.166-.691.383-1.37.587-2.052.104-.351.03-.548-.304-.706a1.343 1.343 0 0 0-.37-.122 5.695 5.695 0 0 0-2.433.181c-.282.082-.487.24-.55.553-.036.18-.108.35-.16.528-.208.735-.355 1.484-.692 2.185-.844 1.757-1.808 3.448-2.794 5.126-.107.182-.219.36-.354.58-.346-.725-.715-1.376-.827-2.138-.127-.862-.226-1.722-.012-2.577.16-.638.368-1.264.56-1.894.09-.299.049-.456-.222-.614a1.306 1.306 0 0 0-.446-.173 5.477 5.477 0 0 0-2.519.206c-.255.083-.39.248-.467.512-.23.777-.426 1.573-.748 2.312-1.305 2.992-2.648 5.968-3.989 8.944-.28.622-.608 1.222-.923 1.827-.08.153-.197.288-.297.432-.08-.094-.11-.16-.11-.224.002-.383-.044-.777.03-1.146a81.006 81.006 0 0 1 .742-3.34c.22-.916.478-1.823.723-2.732.082-.304.084-.589-.135-.845-.367-.428-1.135-.523-1.59-.192l-.202.114.04-.325c.095-.696.114-1.39-.077-2.075-.238-.854-.847-1.346-1.734-1.318a3.725 3.725 0 0 0-1.229.233c-1.608.63-2.845 1.747-3.898 3.09a1.22 1.22 0 0 1-.356.308c-1.361.755-2.726 1.5-4.091 2.248l-1.52.832c-.407-.389-.777-.792-1.197-1.134-1.283-1.046-2.587-2.066-3.878-3.1-1.146-.918-2.255-1.873-3.104-3.087-.63-.903-1.038-1.892-1.077-3.009-.05-1.423.354-2.723 1.079-3.934.927-1.548 2.19-2.791 3.58-3.917 1.47-1.19 3.06-2.2 4.709-3.123 2.305-1.29 4.677-2.433 7.22-3.187 2.607-.774 5.252-1.216 7.98-.908 1.074.122 2.115.367 3.072.892.732.401 1.333.927 1.612 1.748.276.808.267 1.627.076 2.448-.388 1.663-1.298 3.033-2.443 4.258-1.88 2.007-4.172 3.374-6.752 4.277a18.572 18.572 0 0 1-4.594.98c-1.284.107-2.54-.006-3.756-.453-.805-.296-1.506-.748-2.07-1.405-.1-.118-.23-.245-.417-.135-.184.108-.217.283-.155.46.103.295.198.602.358.865.404.661.992 1.14 1.639 1.552 1.243.79 2.633 1.056 4.074 1.118 2.187.094 4.32-.232 6.424-.819 3.003-.837 5.614-2.316 7.708-4.65 1.743-1.943 2.988-4.135 3.255-6.783.13-1.292-.008-2.558-.613-3.737-.657-1.278-1.7-2.227-2.948-2.882-1.817-.952-3.777-1.507-5.801-1.507h-2.028c-2.451 0-4.82.702-7.124 1.54a48.938 48.938 0 0 0-5.113 2.213c-3.614 1.806-6.98 3.983-9.745 6.978C4.867 22.135 3.7 23.78 3.03 25.719a19.05 19.05 0 0 0-.523 1.762m13.097 16.943c-.156 2.097-1.107 3.798-2.661 5.176-.874.774-1.877 1.325-3.044 1.52-.424.07-.857.086-1.268-.09-.585-.25-.717-.77-.728-1.323-.017-.883.292-1.68.716-2.44.553-.99 1.364-1.744 2.23-2.45 1.364-1.11 2.844-2.05 4.36-2.937l.114-.047c.235.866.346 1.72.281 2.59zm11.836-9.117c-.11.67-.249 1.34-.445 1.99-.676 2.247-1.545 4.424-2.485 6.573-.173.397-.426.76-.646 1.137a.795.795 0 0 1-.133.157c-.272.269-.53.255-.667-.097-.16-.408-.258-.845-.343-1.277-.057-.29-.043-.596-.06-.893.017-2.114.662-4.035 1.757-5.824.45-.738.942-1.44 1.692-1.907a2.95 2.95 0 0 1 .75-.332c.4-.113.646.072.58.473zm8.075 10.288 2.902-3.389c.12 1.258-2.018 3.77-2.902 3.389zm9.269-2.28c-.205.117-.429.202-.639.31-.192.1-.256 0-.261-.166a1.122 1.122 0 0 1 .043-.34 7.296 7.296 0 0 1 2.187-3.521l.075-.039a3.109 3.109 0 0 1-1.405 3.755z" style="stroke-width:.47"/></svg>